<svg width="28" height="27" viewBox="0 0 28 27" fill="none" xmlns="http://www.w3.org/2000/svg">
<path fill-rule="evenodd" clip-rule="evenodd" d="M11.0336 9C11.3275 6.81519 13.5109 5 16 5C18.489 5 20.6724 6.81519 20.9664 9H23.8469C24.9515 9 25.8469 9.89543 25.8469 11C25.8469 11.0946 25.8402 11.1892 25.8268 11.2828L24.1126 23.2828C23.9718 24.2681 23.128 25 22.1327 25H9.86725C8.87195 25 8.02811 24.2681 7.88735 23.2828L6.17307 11.2828C6.01686 10.1894 6.77665 9.17631 7.87012 9.0201C7.96381 9.00672 8.05833 9 8.15296 9H11.0336ZM18.9278 9C18.6238 7.93808 17.398 7 16 7C14.6019 7 13.3761 7.93808 13.0721 9H18.9278ZM8.15296 11H11V13H13V11H19V13H21V11H23.8469L22.1327 23H9.86725L8.15296 11Z" fill="black"/>
<circle cx="7.5" cy="9.5" r="7.5" fill="#6342E8"/>
<path d="M5.486 8.3065C5.531 7.9945 5.618 7.7215 5.747 7.4875C5.876 7.2505 6.0365 7.054 6.2285 6.898C6.4235 6.739 6.6455 6.6205 6.8945 6.5425C7.1465 6.4615 7.4165 6.421 7.7045 6.421C8.0045 6.421 8.2745 6.4645 8.5145 6.5515C8.7575 6.6355 8.9645 6.754 9.1355 6.907C9.3065 7.057 9.437 7.234 9.527 7.438C9.62 7.642 9.6665 7.8625 9.6665 8.0995C9.6665 8.3065 9.6425 8.4895 9.5945 8.6485C9.5495 8.8045 9.4835 8.941 9.3965 9.058C9.3095 9.175 9.2015 9.274 9.0725 9.355C8.9435 9.436 8.798 9.5035 8.636 9.5575C9.026 9.6805 9.317 9.868 9.509 10.12C9.701 10.372 9.797 10.6885 9.797 11.0695C9.797 11.3935 9.737 11.68 9.617 11.929C9.497 12.178 9.335 12.388 9.131 12.559C8.927 12.727 8.69 12.8545 8.42 12.9415C8.153 13.0285 7.8695 13.072 7.5695 13.072C7.2425 13.072 6.9575 13.0345 6.7145 12.9595C6.4715 12.8845 6.26 12.7735 6.08 12.6265C5.9 12.4795 5.747 12.2995 5.621 12.0865C5.495 11.8735 5.387 11.6275 5.297 11.3485L5.7875 11.146C5.9165 11.092 6.0365 11.0785 6.1475 11.1055C6.2615 11.1295 6.344 11.1895 6.395 11.2855C6.449 11.3905 6.5075 11.494 6.5705 11.596C6.6365 11.698 6.7145 11.7895 6.8045 11.8705C6.8945 11.9485 6.9995 12.013 7.1195 12.064C7.2425 12.112 7.388 12.136 7.556 12.136C7.745 12.136 7.91 12.106 8.051 12.046C8.192 11.983 8.309 11.902 8.402 11.803C8.498 11.704 8.5685 11.5945 8.6135 11.4745C8.6615 11.3515 8.6855 11.2285 8.6855 11.1055C8.6855 10.9495 8.669 10.8085 8.636 10.6825C8.603 10.5535 8.534 10.444 8.429 10.354C8.324 10.264 8.1725 10.1935 7.9745 10.1425C7.7795 10.0915 7.517 10.066 7.187 10.066V9.274C7.46 9.271 7.6865 9.2455 7.8665 9.1975C8.0465 9.1495 8.189 9.0835 8.294 8.9995C8.402 8.9125 8.477 8.809 8.519 8.689C8.561 8.569 8.582 8.437 8.582 8.293C8.582 7.987 8.4965 7.7545 8.3255 7.5955C8.1545 7.4365 7.9265 7.357 7.6415 7.357C7.5095 7.357 7.388 7.3765 7.277 7.4155C7.166 7.4515 7.0655 7.504 6.9755 7.573C6.8885 7.639 6.815 7.717 6.755 7.807C6.695 7.897 6.65 7.996 6.62 8.104C6.569 8.242 6.5015 8.3335 6.4175 8.3785C6.3365 8.4235 6.221 8.434 6.071 8.41L5.486 8.3065Z" fill="white"/>
</svg>
