<svg width="30" height="30" viewBox="0 0 30 30" fill="none" xmlns="http://www.w3.org/2000/svg">
<path d="M15 27.5L11.25 23.75H6.25C4.86929 23.75 3.75 22.6307 3.75 21.25V5C3.75 3.61929 4.86929 2.5 6.25 2.5H23.75C25.1307 2.5 26.25 3.61929 26.25 5V21.25C26.25 22.6307 25.1307 23.75 23.75 23.75H18.75L15 27.5ZM6.25 5V21.25H12.5L15 23.75L17.5 21.25H23.75V5H6.25ZM20 18.7325H10V18.25C10.1479 15.6314 12.3803 13.6222 15 13.75C17.6197 13.6222 19.8521 15.6314 20 18.25V18.7312V18.7325ZM15 12.5C14.3301 12.5233 13.6806 12.2674 13.2066 11.7934C12.7326 11.3194 12.4767 10.6699 12.5 10C12.4771 9.3302 12.7331 8.68092 13.207 8.20702C13.6809 7.73313 14.3302 7.4771 15 7.5C15.6698 7.4771 16.3191 7.73313 16.793 8.20702C17.2669 8.68092 17.5229 9.3302 17.5 10C17.5233 10.6699 17.2674 11.3194 16.7934 11.7934C16.3194 12.2674 15.6699 12.5233 15 12.5Z" fill="#2E3A59"/>
</svg>
