<svg width="30" height="30" viewBox="0 0 30 30" fill="none" xmlns="http://www.w3.org/2000/svg">
<path d="M25 25H5C3.66314 25.04 2.54552 23.9917 2.5 22.655V7.34374C2.54552 6.00725 3.66335 4.95927 5 4.99999H25C26.3366 4.95927 27.4545 6.00725 27.5 7.34374V22.6562C27.4538 23.9924 26.3364 25.04 25 25ZM5 7.49999V22.4862L25 22.5V7.51374L5 7.49999ZM16.7875 20H7.5C7.59191 18.9651 8.08168 18.0061 8.86625 17.325C9.73978 16.4584 10.9135 15.9615 12.1438 15.9375C13.374 15.9615 14.5477 16.4584 15.4212 17.325C16.2056 18.0063 16.6953 18.9651 16.7875 20ZM22.5 18.75H18.75V16.25H22.5V18.75ZM12.1438 15C11.4738 15.0233 10.8243 14.7674 10.3504 14.2934C9.87638 13.8194 9.62047 13.1699 9.64375 12.5C9.62085 11.8302 9.87688 11.1809 10.3508 10.707C10.8247 10.2331 11.4739 9.97708 12.1438 9.99999C12.8136 9.97708 13.4628 10.2331 13.9367 10.707C14.4106 11.1809 14.6667 11.8302 14.6438 12.5C14.667 13.1699 14.4111 13.8194 13.9371 14.2934C13.4632 14.7674 12.8137 15.0233 12.1438 15ZM22.5 13.75H17.5V11.25H22.5V13.75Z" fill="#2E3A59"/>
</svg>
