<svg width="18" height="18" viewBox="0 0 18 18" fill="none" xmlns="http://www.w3.org/2000/svg">
<path d="M8.90625 7C8.44026 7 8.0625 6.60825 8.0625 6.125C8.0625 5.64175 8.44026 5.25 8.90625 5.25C9.37224 5.25 9.75 5.64175 9.75 6.125C9.75 6.60825 9.37224 7 8.90625 7Z" fill="#2E3A59"/>
<path d="M14.25 10.5H7.5L9.1875 8.16667L9.75 8.75L11.4375 6.41667L14.25 10.5Z" fill="#2E3A59"/>
<path fill-rule="evenodd" clip-rule="evenodd" d="M15 13.5H6C5.17157 13.5 4.5 12.8284 4.5 12V3C4.5 2.17157 5.17157 1.5 6 1.5H15C15.8284 1.5 16.5 2.17157 16.5 3V12C16.5 12.8284 15.8284 13.5 15 13.5ZM6 3V12H15V3H6Z" fill="#2E3A59"/>
<path d="M3 6H1.5V15C1.5 15.8284 2.17157 16.5 3 16.5H12V15H3V6Z" fill="#2E3A59"/>
</svg>
