<svg width="24" height="22" viewBox="0 0 24 22" fill="none" xmlns="http://www.w3.org/2000/svg">
<path d="M12 19.1353C10.7369 18.1568 9.56619 17.0841 8.5 15.9284C6.9 14.1928 5 11.608 5 9.14492C4.99858 6.57245 6.70425 4.25273 9.32107 3.26823C11.9379 2.28374 14.9501 2.82852 16.952 4.64836C18.2685 5.83867 19.0059 7.45781 19 9.14492C19 11.608 17.1 14.1928 15.5 15.9284C14.4338 17.0841 13.2631 18.1568 12 19.1353ZM12 4.60385C9.23995 4.60686 7.00331 6.6382 7 9.14492C7 10.2039 7.527 12.0376 10.035 14.7631C10.6531 15.4334 11.309 16.0743 12 16.6831C12.691 16.075 13.3472 15.4351 13.966 14.7658C16.473 12.0367 17 10.203 17 9.14492C16.9967 6.6382 14.7601 4.60686 12 4.60385ZM12 11.8696C10.3431 11.8696 9 10.6497 9 9.14492C9 7.64014 10.3431 6.42028 12 6.42028C13.6569 6.42028 15 7.64014 15 9.14492C15 9.86754 14.6839 10.5606 14.1213 11.0715C13.5587 11.5825 12.7957 11.8696 12 11.8696Z" fill="#2E3A59"/>
</svg>
