<svg width="30" height="30" viewBox="0 0 30 30" fill="none" xmlns="http://www.w3.org/2000/svg">
<path d="M20.9375 28.75H8.4375C7.05679 28.75 5.9375 27.6307 5.9375 26.25V3.75C5.9375 2.36929 7.05679 1.25 8.4375 1.25H20.9375C22.3182 1.25 23.4375 2.36929 23.4375 3.75V26.25C23.4375 27.6307 22.3182 28.75 20.9375 28.75ZM8.4375 3.75V26.25H20.9375V3.75H8.4375ZM14.6875 25C13.9971 25 13.4375 24.4404 13.4375 23.75C13.4375 23.0596 13.9971 22.5 14.6875 22.5C15.3779 22.5 15.9375 23.0596 15.9375 23.75C15.9375 24.4404 15.3779 25 14.6875 25Z" fill="#2E3A59"/>
</svg>
