<svg width="30" height="30" viewBox="0 0 30 30" fill="none" xmlns="http://www.w3.org/2000/svg">
<path d="M10.9277 10.8524C9.58627 11.9922 9.0947 14.0709 10.253 15.7385C11.3369 17.2991 12.7022 18.6641 14.2624 19.7475C15.9301 20.9056 18.0087 20.4138 19.1484 19.0724L19.1611 19.0782C20.6168 19.7526 22.163 20.2148 23.75 20.4503V23.75L23.7486 23.75L23.7451 23.75C13.7769 23.7641 6.23934 16.1389 6.25001 6.25449V6.25H9.54921L9.54943 6.25146C9.785 7.83831 10.247 9.38317 10.9214 10.8388L10.9277 10.8524ZM23.7486 26.25H25C25.6904 26.25 26.25 25.6903 26.25 25V19.3721C26.25 18.7527 25.7963 18.2266 25.1835 18.1357L24.1158 17.9772C22.7654 17.7768 21.4507 17.3837 20.2119 16.8098L19.2708 16.3739C18.7255 16.1213 18.0775 16.2925 17.7282 16.7816L17.3022 17.378C16.9288 17.9008 16.216 18.0605 15.6883 17.694C14.3729 16.7806 13.2201 15.628 12.3063 14.3124C11.9398 13.7847 12.0994 13.0717 12.6223 12.6983L13.2185 12.2726C13.7076 11.9233 13.8789 11.2753 13.6262 10.7299L13.1898 9.78791C12.6159 8.54925 12.2228 7.23468 12.0223 5.88436L11.8638 4.81645C11.7728 4.2037 11.2468 3.75 10.6273 3.75H5.00001C4.30966 3.75 3.75001 4.30964 3.75001 5V6.25179C3.73786 17.5098 12.3878 26.2661 23.7486 26.25Z" fill="#2E3A59"/>
</svg>
