<svg width="30" height="30" viewBox="0 0 30 30" fill="none" xmlns="http://www.w3.org/2000/svg">
<path d="M17.275 27.5H12.725C12.1377 27.5 11.6295 27.0913 11.5038 26.5175L10.995 24.1625C10.3163 23.8651 9.6728 23.4933 9.07627 23.0538L6.78002 23.785C6.22002 23.9636 5.61125 23.7279 5.31752 23.2188L3.03752 19.28C2.747 18.7706 2.84709 18.1281 3.27877 17.7313L5.06002 16.1063C4.97902 15.3701 4.97902 14.6274 5.06002 13.8912L3.27877 12.27C2.84646 11.873 2.74633 11.2297 3.03752 10.72L5.31252 6.77875C5.60625 6.26962 6.21502 6.03392 6.77502 6.2125L9.07127 6.94375C9.37635 6.7177 9.69394 6.50903 10.0225 6.31875C10.3379 6.14087 10.6626 5.97981 10.995 5.83625L11.505 3.48375C11.6301 2.90996 12.1378 2.50062 12.725 2.5H17.275C17.8623 2.50062 18.3699 2.90996 18.495 3.48375L19.01 5.8375C19.361 5.9919 19.7028 6.16635 20.0338 6.36C20.3424 6.53852 20.6408 6.73424 20.9275 6.94625L23.225 6.215C23.7846 6.03709 24.3927 6.2727 24.6863 6.78125L26.9613 10.7225C27.2518 11.2319 27.1517 11.8744 26.72 12.2712L24.9388 13.8962C25.0198 14.6324 25.0198 15.3751 24.9388 16.1112L26.72 17.7362C27.1517 18.1331 27.2518 18.7756 26.9613 19.285L24.6863 23.2262C24.3927 23.7348 23.7846 23.9704 23.225 23.7925L20.9275 23.0612C20.6368 23.2754 20.3347 23.4736 20.0225 23.655C19.6948 23.8449 19.3568 24.0164 19.01 24.1688L18.495 26.5175C18.3694 27.0908 17.8619 27.4995 17.275 27.5ZM9.52502 20.2863L10.55 21.0363C10.7811 21.2064 11.0219 21.363 11.2713 21.505C11.5059 21.6409 11.7475 21.7644 11.995 21.875L13.1613 22.3862L13.7325 25H16.27L16.8413 22.385L18.0075 21.8738C18.5166 21.6492 18.9999 21.3701 19.4488 21.0413L20.475 20.2913L23.0263 21.1038L24.295 18.9062L22.3163 17.1025L22.4563 15.8375C22.5178 15.2842 22.5178 14.7258 22.4563 14.1725L22.3163 12.9075L24.2963 11.1L23.0263 8.90125L20.475 9.71375L19.4488 8.96375C18.9998 8.63339 18.5166 8.35219 18.0075 8.125L16.8413 7.61375L16.27 5H13.7325L13.1588 7.615L11.995 8.125C11.7473 8.2338 11.5057 8.35607 11.2713 8.49125C11.0234 8.63291 10.7839 8.78858 10.5538 8.9575L9.52752 9.7075L6.97752 8.895L5.70627 11.1L7.68502 12.9012L7.54502 14.1675C7.48352 14.7208 7.48352 15.2792 7.54502 15.8325L7.68502 17.0975L5.70627 18.9013L6.97502 21.0987L9.52502 20.2863ZM14.995 20C12.2336 20 9.99502 17.7614 9.99502 15C9.99502 12.2386 12.2336 10 14.995 10C17.7564 10 19.995 12.2386 19.995 15C19.9916 17.76 17.755 19.9966 14.995 20ZM14.995 12.5C13.6293 12.5014 12.5174 13.5986 12.4978 14.9642C12.4782 16.3298 13.5582 17.4584 14.9234 17.4989C16.2885 17.5394 17.4336 16.4769 17.495 15.1125V15.6125V15C17.495 13.6193 16.3757 12.5 14.995 12.5Z" fill="#2E3A59"/>
</svg>
