<svg width="34" height="34" viewBox="0 0 34 34" fill="none" xmlns="http://www.w3.org/2000/svg">
<path fill-rule="evenodd" clip-rule="evenodd" d="M23.6092 2.84798C25.6471 2.72061 27.6567 3.42821 29.171 4.81511C30.5579 6.32938 31.2655 8.33896 31.1523 10.391V23.609C31.2797 25.661 30.5579 27.6706 29.1851 29.1849C27.6709 30.5718 25.6471 31.2794 23.6092 31.152H10.3911C8.33905 31.2794 6.32944 30.5718 4.81516 29.1849C3.42825 27.6706 2.72065 25.661 2.84802 23.609V10.391C2.72065 8.33896 3.42825 6.32938 4.81516 4.81511C6.32944 3.42821 8.33905 2.72061 10.3911 2.84798H23.6092ZM15.5566 23.8637L25.081 14.3111C25.9443 13.4337 25.9443 12.0185 25.081 11.1552L23.2412 9.31545C22.3638 8.43803 20.9486 8.43803 20.0712 9.31545L19.123 10.2778C18.9815 10.4193 18.9815 10.6599 19.123 10.8014C19.123 10.8014 21.3732 13.0374 21.4156 13.094C21.5713 13.2639 21.6704 13.4903 21.6704 13.745C21.6704 14.2545 21.26 14.6791 20.7363 14.6791C20.4957 14.6791 20.2693 14.58 20.1136 14.4243L17.7502 12.0751C17.637 11.9619 17.4389 11.9619 17.3257 12.0751L10.5751 18.8256C10.1081 19.2926 9.83917 19.9153 9.82502 20.5805L9.74011 23.9345C9.74011 24.1185 9.79672 24.2883 9.92408 24.4157C10.0515 24.543 10.2213 24.6138 10.4053 24.6138H13.731C14.4103 24.6138 15.0613 24.3449 15.5566 23.8637Z" fill="#6342E8"/>
</svg>
