<svg width="414" height="875" viewBox="0 0 414 875" fill="none" xmlns="http://www.w3.org/2000/svg">
<g filter="url(#filter0_d_424:694)">
<path d="M378.531 750.029C537.128 700.291 572.733 896.234 570.711 1000.42C559.994 1060.51 671.345 1032.02 761.539 1083.89C851.733 1135.76 678.046 1260.4 643.861 1281.76C609.676 1303.13 472.199 1367.99 506.964 1281.31C541.729 1194.64 485.694 1107.09 375.815 1176.79C265.936 1246.48 207.745 1125.76 176.182 860.403C144.618 595.05 180.285 812.202 378.531 750.029Z" fill="#6342E8"/>
<path d="M378.531 780.029C537.128 730.291 572.733 926.234 570.71 1030.42C559.994 1090.51 671.345 1062.02 761.539 1113.89C851.733 1165.76 678.046 1290.4 643.861 1311.76C609.676 1333.13 472.199 1397.99 506.964 1311.31C541.729 1224.64 485.694 1137.09 375.815 1206.79C265.936 1276.48 207.745 1155.76 176.182 890.403C144.618 625.05 180.285 842.202 378.531 780.029Z" fill="#7456EF"/>
<path d="M378.531 802.029C537.128 752.291 572.733 948.234 570.71 1052.42C559.994 1112.51 671.345 1084.02 761.539 1135.89C851.733 1187.76 678.046 1312.4 643.861 1333.76C609.676 1355.13 472.199 1419.99 506.964 1333.31C541.729 1246.64 485.694 1159.09 375.815 1228.79C265.936 1298.48 207.745 1177.76 176.182 912.403C144.618 647.05 180.285 864.202 378.531 802.029Z" fill="#876BF8"/>
<path d="M119.495 71.6847C184.095 34.9158 130.793 -36.4346 96.0677 -67.5136C73.1318 -82.3104 116.382 -110.085 126.878 -155.415C137.374 -200.746 43.6557 -181.855 26.2467 -177.172C8.83778 -172.49 -54.2772 -147.241 -15.3117 -132.218C23.6539 -117.195 35.2462 -72.1771 -21.0454 -57.4374C-77.337 -42.6978 -55.5414 13.1319 21.7146 104.305C98.9705 195.478 38.7445 117.646 119.495 71.6847Z" fill="#6342E8"/>
<path d="M138.495 71.6847C203.095 34.9158 149.793 -36.4346 115.068 -67.5136C92.1318 -82.3104 135.382 -110.085 145.878 -155.415C156.374 -200.746 62.6557 -181.855 45.2467 -177.172C27.8378 -172.49 -35.2772 -147.241 3.68835 -132.218C42.6539 -117.195 54.2462 -72.1771 -2.04539 -57.4374C-58.337 -42.6978 -36.5414 13.1319 40.7146 104.305C117.97 195.478 57.7445 117.646 138.495 71.6847Z" fill="#6342E8" fill-opacity="0.8"/>
<path d="M100.495 59.6847C165.095 22.9158 111.793 -48.4346 77.0677 -79.5136C54.1318 -94.3104 97.3817 -122.085 107.878 -167.415C118.374 -212.746 24.6557 -193.855 7.24673 -189.172C-10.1622 -184.49 -73.2772 -159.241 -34.3117 -144.218C4.65388 -129.195 16.2462 -84.1771 -40.0454 -69.4374C-96.337 -54.6978 -74.5414 1.13189 2.71456 92.3049C79.9705 183.478 19.7445 105.646 100.495 59.6847Z" fill="#5532E0"/>
</g>
<defs>
<filter id="filter0_d_424:694" x="-75.6326" y="-197.064" width="866.852" height="1582.24" filterUnits="userSpaceOnUse" color-interpolation-filters="sRGB">
<feFlood flood-opacity="0" result="BackgroundImageFix"/>
<feColorMatrix in="SourceAlpha" type="matrix" values="0 0 0 0 0 0 0 0 0 0 0 0 0 0 0 0 0 0 127 0" result="hardAlpha"/>
<feOffset dy="4"/>
<feGaussianBlur stdDeviation="2"/>
<feComposite in2="hardAlpha" operator="out"/>
<feColorMatrix type="matrix" values="0 0 0 0 0 0 0 0 0 0 0 0 0 0 0 0 0 0 0.25 0"/>
<feBlend mode="normal" in2="BackgroundImageFix" result="effect1_dropShadow_424:694"/>
<feBlend mode="normal" in="SourceGraphic" in2="effect1_dropShadow_424:694" result="shape"/>
</filter>
</defs>
</svg>
