<svg width="185" height="153" viewBox="0 0 185 153" fill="none" xmlns="http://www.w3.org/2000/svg">
<path d="M119.495 71.6847C184.095 34.9158 130.793 -36.4346 96.0677 -67.5136C73.1318 -82.3104 116.382 -110.085 126.878 -155.415C137.374 -200.746 43.6557 -181.855 26.2467 -177.172C8.83778 -172.49 -54.2772 -147.241 -15.3117 -132.218C23.6539 -117.195 35.2462 -72.1771 -21.0454 -57.4374C-77.337 -42.6978 -55.5414 13.1319 21.7146 104.305C98.9705 195.478 38.7445 117.646 119.495 71.6847Z" fill="#6342E8"/>
<path d="M138.495 71.6847C203.095 34.9158 149.793 -36.4346 115.068 -67.5136C92.1318 -82.3104 135.382 -110.085 145.878 -155.415C156.374 -200.746 62.6557 -181.855 45.2467 -177.172C27.8378 -172.49 -35.2772 -147.241 3.68835 -132.218C42.6539 -117.195 54.2462 -72.1771 -2.04539 -57.4374C-58.337 -42.6978 -36.5414 13.1319 40.7146 104.305C117.97 195.478 57.7445 117.646 138.495 71.6847Z" fill="#6342E8" fill-opacity="0.8"/>
<path d="M100.495 59.6847C165.095 22.9158 111.793 -48.4346 77.0677 -79.5136C54.1318 -94.3104 97.3817 -122.085 107.878 -167.415C118.374 -212.746 24.6557 -193.855 7.24673 -189.172C-10.1622 -184.49 -73.2772 -159.241 -34.3117 -144.218C4.65388 -129.195 16.2462 -84.1771 -40.0454 -69.4374C-96.337 -54.6978 -74.5414 1.13189 2.71456 92.3049C79.9705 183.478 19.7445 105.646 100.495 59.6847Z" fill="#5532E0"/>
</svg>
