<svg width="414" height="282" viewBox="0 0 414 282" fill="none" xmlns="http://www.w3.org/2000/svg">
<path d="M378.531 157.029C537.128 107.291 572.733 303.234 570.711 407.423C559.994 467.509 671.345 439.019 761.539 490.889C851.733 542.76 678.046 667.399 643.861 688.764C609.676 710.129 472.199 774.985 506.964 688.315C541.729 601.644 485.694 514.091 375.815 583.786C265.936 653.481 207.745 532.756 176.182 267.403C144.618 2.04989 180.285 219.202 378.531 157.029Z" fill="#6342E8"/>
<path d="M378.531 187.029C537.128 137.291 572.733 333.234 570.71 437.423C559.994 497.509 671.345 469.019 761.539 520.889C851.733 572.76 678.046 697.399 643.861 718.764C609.676 740.129 472.199 804.986 506.964 718.315C541.729 631.644 485.694 544.091 375.815 613.786C265.936 683.481 207.745 562.756 176.182 297.403C144.618 32.0499 180.285 249.202 378.531 187.029Z" fill="#7456EF"/>
<path d="M378.531 209.029C537.128 159.291 572.733 355.234 570.71 459.423C559.994 519.509 671.345 491.019 761.539 542.889C851.733 594.76 678.046 719.399 643.861 740.764C609.676 762.129 472.199 826.986 506.964 740.315C541.729 653.644 485.694 566.091 375.815 635.786C265.936 705.481 207.745 584.756 176.182 319.403C144.618 54.0499 180.285 271.202 378.531 209.029Z" fill="#876BF8"/>
</svg>
